<?xml version="1.0" encoding="iso-8859-1"?>
<!-- Generator: Adobe Illustrator 19.0.1, SVG Export Plug-In . SVG Version: 6.00 Build 0)  -->
<svg version="1.1" xmlns="http://www.w3.org/2000/svg" xmlns:xlink="http://www.w3.org/1999/xlink" x="0px" y="0px"
	 viewBox="0 0 128 128" style="enable-background:new 0 0 128 128;" xml:space="preserve">
<g id="_x31_">
	<path id="icon" style="fill:#292524;" d="M127.9,72.817l-16.636-37.036H16.679L0.043,72.817L0,72.917v19.302h128V73.045
		L127.9,72.817z M19.445,40.058h89.054l14.712,32.759H4.733L19.445,40.058z M123.723,87.942H4.277V75.668l48.811-0.043
		c1.311,4.633,5.688,8.026,10.877,8.026c5.203,0,9.58-3.393,10.891-8.026l48.868,0.043V87.942z M107.052,45.044h-1.277
		c-0.394,0-0.713-0.319-0.713-0.713s0.319-0.713,0.713-0.713h1.277c0.394,0,0.713,0.319,0.713,0.713S107.446,45.044,107.052,45.044z
		 M102.924,45.044H20.777c-0.394,0-0.713-0.319-0.713-0.713s0.319-0.713,0.713-0.713h82.147c0.394,0,0.713,0.319,0.713,0.713
		S103.318,45.044,102.924,45.044z"/>
</g>
<g id="Layer_1">
</g>
</svg>
